CddbId:aa0f3a63:[150, 931, 2860, 5591, 7792, 10411, 13344, 16012, 18764, 21773, 24692, 27457, 30703, 34312, 37370, 40700, 43465, 46335, 49811, 53196, 56791, 59689, 61716, 64056, 67630, 70166, 73091, 75662, 78197, 80134, 83164, 85010, 86821, 90311, 93035, 96622, 99785, 101924, 105135, 108520, 111627, 114246, 117228, 120425, 123288, 126855, 129781, 133222, 136245, 139610, 143497, 145997, 149731, 153068, 156795, 159609, 162556, 166004, 168706, 171974, 175004, 177707, 181001, 185202, 188427, 191179, 193136, 196584, 200771, 202540, 205480, 208935, 212996, 215622, 218325, 221662, 224936, 227785, 230418, 233309, 236708, 240303, 243166, 246071, 249693, 252507, 255537, 258233, 261612, 264398, 267352, 270243, 271636, 275230, 278247, 282719, 286703, 289148, 290751]:292500:74:aa0f3a63 99 150 931 2860 5591 7792 10411 13344 16012 18764 21773 24692 27457 30703 34312 37370 40700 43465 46335 49811 53196 56791 59689 61716 64056 67630 70166 73091 75662 78197 80134 83164 85010 86821 90311 93035 96622 99785 101924 105135 108520 111627 114246 117228 120425 123288 126855 129781 133222 136245 139610 143497 145997 149731 153068 156795 159609 162556 166004 168706 171974 175004 177707 181001 185202 188427 191179 193136 196584 200771 202540 205480 208935 212996 215622 218325 221662 224936 227785 230418 233309 236708 240303 243166 246071 249693 252507 255537 258233 261612 264398 267352 270243 271636 275230 278247 282719 286703 289148 290751 3900: 99 0 0 0 0 0 0 0 0 0 0 0 0 0 0 0 0 0 0 0 0 0 0 0 0 0 0 0 0 0 0 0 0 0 0 0 0 0 0 0 0 0 0 0 0 0 0 0 0 0 0 0 0 0 0 0 0 0 0 0 0 0 0 0 0 0 0 0 0 0 0 0 0 0 0 0 0 0 0 0 0 0 0 0 0 0 0 0 0 0 0 0 0 0 0 0 0 0 0 0 3900
num_tracks: 99
offsets: [150, 931, 2860, 5591, 7792, 10411, 13344, 16012, 18764, 21773, 24692, 27457, 30703, 34312, 37370, 40700, 43465, 46335, 49811, 53196, 56791, 59689, 61716, 64056, 67630, 70166, 73091, 75662, 78197, 80134, 83164, 85010, 86821, 90311, 93035, 96622, 99785, 101924, 105135, 108520, 111627, 114246, 117228, 120425, 123288, 126855, 129781, 133222, 136245, 139610, 143497, 145997, 149731, 153068, 156795, 159609, 162556, 166004, 168706, 171974, 175004, 177707, 181001, 185202, 188427, 191179, 193136, 196584, 200771, 202540, 205480, 208935, 212996, 215622, 218325, 221662, 224936, 227785, 230418, 233309, 236708, 240303, 243166, 246071, 249693, 252507, 255537, 258233, 261612, 264398, 267352, 270243, 271636, 275230, 278247, 282719, 286703, 289148, 290751]
extents: [0, 0, 0, 0, 0, 0, 0, 0, 0, 0, 0, 0, 0, 0, 0, 0, 0, 0, 0, 0, 0, 0, 0, 0, 0, 0, 0, 0, 0, 0, 0, 0, 0, 0, 0, 0, 0, 0, 0, 0, 0, 0, 0, 0, 0, 0, 0, 0, 0, 0, 0, 0, 0, 0, 0, 0, 0, 0, 0, 0, 0, 0, 0, 0, 0, 0, 0, 0, 0, 0, 0, 0, 0, 0, 0, 0, 0, 0, 0, 0, 0, 0, 0, 0, 0, 0, 0, 0, 0, 0, 0, 0, 0, 0, 0, 0, 0, 0, 0]
total_length: 3900
cddb: [2853124707, 99, 150, 931, 2860, 5591, 7792, 10411, 13344, 16012, 18764, 21773, 24692, 27457, 30703, 34312, 37370, 40700, 43465, 46335, 49811, 53196, 56791, 59689, 61716, 64056, 67630, 70166, 73091, 75662, 78197, 80134, 83164, 85010, 86821, 90311, 93035, 96622, 99785, 101924, 105135, 108520, 111627, 114246, 117228, 120425, 123288, 126855, 129781, 133222, 136245, 139610, 143497, 145997, 149731, 153068, 156795, 159609, 162556, 166004, 168706, 171974, 175004, 177707, 181001, 185202, 188427, 191179, 193136, 196584, 200771, 202540, 205480, 208935, 212996, 215622, 218325, 221662, 224936, 227785, 230418, 233309, 236708, 240303, 243166, 246071, 249693, 252507, 255537, 258233, 261612, 264398, 267352, 270243, 271636, 275230, 278247, 282719, 286703, 289148, 290751, 3900]
musicbrainz: ('99 150 931 2860 5591 7792 10411 13344 16012 18764 21773 24692 27457 30703 34312 37370 40700 43465 46335 49811 53196 56791 59689 61716 64056 67630 70166 73091 75662 78197 80134 83164 85010 86821 90311 93035 96622 99785 101924 105135 108520 111627 114246 117228 120425 123288 126855 129781 133222 136245 139610 143497 145997 149731 153068 156795 159609 162556 166004 168706 171974 175004 177707 181001 185202 188427 191179 193136 196584 200771 202540 205480 208935 212996 215622 218325 221662 224936 227785 230418 233309 236708 240303 243166 246071 249693 252507 255537 258233 261612 264398 267352 270243 271636 275230 278247 282719 286703 289148 290751 292500', 'owvqHbUdYV4m8aLGwjfSyzWw6TQ-')

CD record:
Device type    : Removable CD-ROM
Version        : 0
Response Format: 1
Vendor_info    : 'SAMSUNG '
Identification : 'CD-ROM SC-148A  '
Revision       : 'B403'
Device seems to be: Generic mmc CD-ROM.
Using generic SCSI-3/mmc   CD-ROM driver (mmc_cd).
Driver flags   : MMC-2 SWABAUDIO 
Supported modes: 
first: 1 last 99
track:   1 lba:         0 (        0) 00:02:00 adr: 1 control: 0 mode: -1
track:   2 lba:       781 (     3124) 00:12:31 adr: 1 control: 0 mode: -1
track:   3 lba:      2710 (    10840) 00:38:10 adr: 1 control: 0 mode: -1
track:   4 lba:      5441 (    21764) 01:14:41 adr: 1 control: 0 mode: -1
track:   5 lba:      7642 (    30568) 01:43:67 adr: 1 control: 0 mode: -1
track:   6 lba:     10261 (    41044) 02:18:61 adr: 1 control: 0 mode: -1
track:   7 lba:     13194 (    52776) 02:57:69 adr: 1 control: 0 mode: -1
track:   8 lba:     15862 (    63448) 03:33:37 adr: 1 control: 0 mode: -1
track:   9 lba:     18614 (    74456) 04:10:14 adr: 1 control: 0 mode: -1
track:  10 lba:     21623 (    86492) 04:50:23 adr: 1 control: 0 mode: -1
track:  11 lba:     24542 (    98168) 05:29:17 adr: 1 control: 0 mode: -1
track:  12 lba:     27307 (   109228) 06:06:07 adr: 1 control: 0 mode: -1
track:  13 lba:     30553 (   122212) 06:49:28 adr: 1 control: 0 mode: -1
track:  14 lba:     34162 (   136648) 07:37:37 adr: 1 control: 0 mode: -1
track:  15 lba:     37220 (   148880) 08:18:20 adr: 1 control: 0 mode: -1
track:  16 lba:     40550 (   162200) 09:02:50 adr: 1 control: 0 mode: -1
track:  17 lba:     43315 (   173260) 09:39:40 adr: 1 control: 0 mode: -1
track:  18 lba:     46185 (   184740) 10:17:60 adr: 1 control: 0 mode: -1
track:  19 lba:     49661 (   198644) 11:04:11 adr: 1 control: 0 mode: -1
track:  20 lba:     53046 (   212184) 11:49:21 adr: 1 control: 0 mode: -1
track:  21 lba:     56641 (   226564) 12:37:16 adr: 1 control: 0 mode: -1
track:  22 lba:     59539 (   238156) 13:15:64 adr: 1 control: 0 mode: -1
track:  23 lba:     61566 (   246264) 13:42:66 adr: 1 control: 0 mode: -1
track:  24 lba:     63906 (   255624) 14:14:06 adr: 1 control: 0 mode: -1
track:  25 lba:     67480 (   269920) 15:01:55 adr: 1 control: 0 mode: -1
track:  26 lba:     70016 (   280064) 15:35:41 adr: 1 control: 0 mode: -1
track:  27 lba:     72941 (   291764) 16:14:41 adr: 1 control: 0 mode: -1
track:  28 lba:     75512 (   302048) 16:48:62 adr: 1 control: 0 mode: -1
track:  29 lba:     78047 (   312188) 17:22:47 adr: 1 control: 0 mode: -1
track:  30 lba:     79984 (   319936) 17:48:34 adr: 1 control: 0 mode: -1
track:  31 lba:     83014 (   332056) 18:28:64 adr: 1 control: 0 mode: -1
track:  32 lba:     84860 (   339440) 18:53:35 adr: 1 control: 0 mode: -1
track:  33 lba:     86671 (   346684) 19:17:46 adr: 1 control: 0 mode: -1
track:  34 lba:     90161 (   360644) 20:04:11 adr: 1 control: 0 mode: -1
track:  35 lba:     92885 (   371540) 20:40:35 adr: 1 control: 0 mode: -1
track:  36 lba:     96472 (   385888) 21:28:22 adr: 1 control: 0 mode: -1
track:  37 lba:     99635 (   398540) 22:10:35 adr: 1 control: 0 mode: -1
track:  38 lba:    101774 (   407096) 22:38:74 adr: 1 control: 0 mode: -1
track:  39 lba:    104985 (   419940) 23:21:60 adr: 1 control: 0 mode: -1
track:  40 lba:    108370 (   433480) 24:06:70 adr: 1 control: 0 mode: -1
track:  41 lba:    111477 (   445908) 24:48:27 adr: 1 control: 0 mode: -1
track:  42 lba:    114096 (   456384) 25:23:21 adr: 1 control: 0 mode: -1
track:  43 lba:    117078 (   468312) 26:03:03 adr: 1 control: 0 mode: -1
track:  44 lba:    120275 (   481100) 26:45:50 adr: 1 control: 0 mode: -1
track:  45 lba:    123138 (   492552) 27:23:63 adr: 1 control: 0 mode: -1
track:  46 lba:    126705 (   506820) 28:11:30 adr: 1 control: 0 mode: -1
track:  47 lba:    129631 (   518524) 28:50:31 adr: 1 control: 0 mode: -1
track:  48 lba:    133072 (   532288) 29:36:22 adr: 1 control: 0 mode: -1
track:  49 lba:    136095 (   544380) 30:16:45 adr: 1 control: 0 mode: -1
track:  50 lba:    139460 (   557840) 31:01:35 adr: 1 control: 0 mode: -1
track:  51 lba:    143347 (   573388) 31:53:22 adr: 1 control: 0 mode: -1
track:  52 lba:    145847 (   583388) 32:26:47 adr: 1 control: 0 mode: -1
track:  53 lba:    149581 (   598324) 33:16:31 adr: 1 control: 0 mode: -1
track:  54 lba:    152918 (   611672) 34:00:68 adr: 1 control: 0 mode: -1
track:  55 lba:    156645 (   626580) 34:50:45 adr: 1 control: 0 mode: -1
track:  56 lba:    159459 (   637836) 35:28:09 adr: 1 control: 0 mode: -1
track:  57 lba:    162406 (   649624) 36:07:31 adr: 1 control: 0 mode: -1
track:  58 lba:    165854 (   663416) 36:53:29 adr: 1 control: 0 mode: -1
track:  59 lba:    168556 (   674224) 37:29:31 adr: 1 control: 0 mode: -1
track:  60 lba:    171824 (   687296) 38:12:74 adr: 1 control: 0 mode: -1
track:  61 lba:    174854 (   699416) 38:53:29 adr: 1 control: 0 mode: -1
track:  62 lba:    177557 (   710228) 39:29:32 adr: 1 control: 0 mode: -1
track:  63 lba:    180851 (   723404) 40:13:26 adr: 1 control: 0 mode: -1
track:  64 lba:    185052 (   740208) 41:09:27 adr: 1 control: 0 mode: -1
track:  65 lba:    188277 (   753108) 41:52:27 adr: 1 control: 0 mode: -1
track:  66 lba:    191029 (   764116) 42:29:04 adr: 1 control: 0 mode: -1
track:  67 lba:    192986 (   771944) 42:55:11 adr: 1 control: 0 mode: -1
track:  68 lba:    196434 (   785736) 43:41:09 adr: 1 control: 0 mode: -1
track:  69 lba:    200621 (   802484) 44:36:71 adr: 1 control: 0 mode: -1
track:  70 lba:    202390 (   809560) 45:00:40 adr: 1 control: 0 mode: -1
track:  71 lba:    205330 (   821320) 45:39:55 adr: 1 control: 0 mode: -1
track:  72 lba:    208785 (   835140) 46:25:60 adr: 1 control: 0 mode: -1
track:  73 lba:    212846 (   851384) 47:19:71 adr: 1 control: 0 mode: -1
track:  74 lba:    215472 (   861888) 47:54:72 adr: 1 control: 0 mode: -1
track:  75 lba:    218175 (   872700) 48:31:00 adr: 1 control: 0 mode: -1
track:  76 lba:    221512 (   886048) 49:15:37 adr: 1 control: 0 mode: -1
track:  77 lba:    224786 (   899144) 49:59:11 adr: 1 control: 0 mode: -1
track:  78 lba:    227635 (   910540) 50:37:10 adr: 1 control: 0 mode: -1
track:  79 lba:    230268 (   921072) 51:12:18 adr: 1 control: 0 mode: -1
track:  80 lba:    233159 (   932636) 51:50:59 adr: 1 control: 0 mode: -1
track:  81 lba:    236558 (   946232) 52:36:08 adr: 1 control: 0 mode: -1
track:  82 lba:    240153 (   960612) 53:24:03 adr: 1 control: 0 mode: -1
track:  83 lba:    243016 (   972064) 54:02:16 adr: 1 control: 0 mode: -1
track:  84 lba:    245921 (   983684) 54:40:71 adr: 1 control: 0 mode: -1
track:  85 lba:    249543 (   998172) 55:29:18 adr: 1 control: 0 mode: -1
track:  86 lba:    252357 (  1009428) 56:06:57 adr: 1 control: 0 mode: -1
track:  87 lba:    255387 (  1021548) 56:47:12 adr: 1 control: 0 mode: -1
track:  88 lba:    258083 (  1032332) 57:23:08 adr: 1 control: 0 mode: -1
track:  89 lba:    261462 (  1045848) 58:08:12 adr: 1 control: 0 mode: -1
track:  90 lba:    264248 (  1056992) 58:45:23 adr: 1 control: 0 mode: -1
track:  91 lba:    267202 (  1068808) 59:24:52 adr: 1 control: 0 mode: -1
track:  92 lba:    270093 (  1080372) 60:03:18 adr: 1 control: 0 mode: -1
track:  93 lba:    271486 (  1085944) 60:21:61 adr: 1 control: 0 mode: -1
track:  94 lba:    275080 (  1100320) 61:09:55 adr: 1 control: 0 mode: -1
track:  95 lba:    278097 (  1112388) 61:49:72 adr: 1 control: 0 mode: -1
track:  96 lba:    282569 (  1130276) 62:49:44 adr: 1 control: 0 mode: -1
track:  97 lba:    286553 (  1146212) 63:42:53 adr: 1 control: 0 mode: -1
track:  98 lba:    288998 (  1155992) 64:15:23 adr: 1 control: 0 mode: -1
track:  99 lba:    290601 (  1162404) 64:36:51 adr: 1 control: 0 mode: -1
track:lout lba:    292350 (  1169400) 65:00:00 adr: 1 control: 0 mode: -1
